<?xml version="1.0" standalone="no"?>
<!DOCTYPE svg PUBLIC "-//W3C//DTD SVG 20010904//EN"
 "http://www.w3.org/TR/2001/REC-SVG-20010904/DTD/svg10.dtd">
<svg version="1.0" xmlns="http://www.w3.org/2000/svg"
 width="96.000000pt" height="96.000000pt" viewBox="0 0 96.000000 96.000000"
 preserveAspectRatio="xMidYMid meet">
<metadata>
Created by potrace 1.11, written by Peter Selinger 2001-2013
</metadata>
<g transform="translate(0.000000,96.000000) scale(0.100000,-0.100000)"
fill="#000000" stroke="none">
<path d="M140 882 c0 -23 19 -42 42 -42 18 0 23 16 12 44 -9 23 -54 21 -54 -2z"/>
<path d="M705 744 c-16 -8 -48 -31 -72 -50 l-43 -35 -33 34 c-42 45 -111 59
-164 33 -26 -13 -38 -14 -49 -5 -28 23 -33 -1 -27 -139 6 -148 12 -172 45
-172 20 0 21 3 15 90 -10 131 17 184 90 184 48 0 77 -35 104 -127 24 -82 43
-117 63 -117 22 0 27 28 11 73 -20 56 -19 76 5 115 34 56 103 85 155 65 10 -3
28 -29 41 -57 20 -43 24 -67 24 -149 0 -88 2 -98 18 -95 27 5 45 73 37 147
-16 167 -115 260 -220 205z"/>
<path d="M189 728 c-3 -40 5 -99 33 -248 24 -124 32 -195 32 -285 l1 -120 -30
-3 c-44 -4 -78 30 -133 132 -26 49 -51 90 -57 90 -20 2 -16 -65 8 -117 30 -66
70 -113 126 -149 55 -35 101 -37 121 -5 19 30 25 218 11 345 -13 112 -53 299
-73 339 -14 29 -37 42 -39 21z"/>
</g>
</svg>
